<svg xmlns="http://www.w3.org/2000/svg" style="display: none">

  <!-- ========= FEATURES ICONS ========= -->

  <symbol id="icon-antenna-1" viewBox="0 0 64 64">
    <g fill="none" stroke="currentColor" stroke-width="2" stroke-linecap="round" stroke-linejoin="round">
      <circle cx="32" cy="44" r="3" />
      <path d="M32 41V30" />
      <path d="M22 26a14 14 0 0 1 20 0" />
      <path d="M18 22a20 20 0 0 1 28 0" />
      <path d="M26 34h12" />
    </g>
  </symbol>

  <symbol id="icon-clock-1" viewBox="0 0 64 64">
    <g fill="none" stroke="currentColor" stroke-width="2" stroke-linecap="round" stroke-linejoin="round">
      <circle cx="32" cy="32" r="16" />
      <path d="M32 24v8l5 5" />
    </g>
  </symbol>

  <symbol id="icon-diagram-1" viewBox="0 0 64 64">
    <g fill="none" stroke="currentColor" stroke-width="2" stroke-linecap="round" stroke-linejoin="round">
      <rect x="14" y="30" width="8" height="20" rx="1" ry="1" />
      <rect x="28" y="24" width="8" height="26" rx="1" ry="1" />
      <rect x="42" y="18" width="8" height="32" rx="1" ry="1" />
      <path d="M14 52h36" />
    </g>
  </symbol>

  <symbol id="icon-astronaut-1" viewBox="0 0 64 64">
    <g fill="none" stroke="currentColor" stroke-width="2" stroke-linecap="round" stroke-linejoin="round">
      <circle cx="32" cy="26" r="10" />
      <circle cx="32" cy="26" r="6" />
      <path d="M22 46c2.5-4 6-6 10-6s7.5 2 10 6" />
      <rect x="18" y="18" width="28" height="24" rx="12" ry="12" />
      <path d="M18 26h-4M50 26h4" />
      <path d="M26 54h12" />
    </g>
  </symbol>

  <!-- ========= SOCIAL ICONS ========= -->

  <symbol id="icon-instagram" viewBox="0 0 16 16">
    <g fill="none" stroke="currentColor" stroke-width="1.5" stroke-linecap="round" stroke-linejoin="round">
      <rect x="2" y="2" width="12" height="12" rx="3" ry="3" />
      <circle cx="8" cy="8" r="3" />
      <circle cx="11.5" cy="4.5" r="0.7" />
    </g>
  </symbol>

  <symbol id="icon-twitter" viewBox="0 0 16 16">
    <path fill="currentColor"
      d="M14.5 4.5a4 4 0 0 1-1.7.5 2.7 2.7 0 0 0 1.1-1.5 4.1 4.1 0 0 1-1.8.7A2.6 2.6 0 0 0 8.2 5.8a7.3 7.3 0 0 1-5.3-2.7 2.6 2.6 0 0 0 .8 3.5 2.5 2.5 0 0 1-1.2-.3v.1a2.6 2.6 0 0 0 2.1 2.5 2.6 2.6 0 0 1-1.2 0 2.6 2.6 0 0 0 2.4 1.8A5.3 5.3 0 0 1 2 12a7.4 7.4 0 0 0 4 1.2c4.8 0 7.5-4 7.5-7.5v-.3a5 5 0 0 0 1-1z" />
  </symbol>

  <symbol id="icon-facebook" viewBox="0 0 16 16">
    <path fill="currentColor"
      d="M9.5 3H11V0.5A18 18 0 0 0 8.6 0C6.7 0 5.4 1.3 5.4 3.7V6H3v3h2.4v7h3V9h2.3l.4-3H8.4V3.9c0-.9.3-1.4 1.1-1.4z" />
  </symbol>

  <symbol id="icon-linkedin" viewBox="0 0 16 16">
    <path fill="currentColor"
      d="M3.5 2.5a1.5 1.5 0 1 1-3 0a1.5 1.5 0 0 1 3 0zM.3 5h3.4v11H.3zM6 5h3.2v1.5h.1c.4-.7 1.3-1.5 2.7-1.5C15 5 16 6.4 16 9.1V16h-3.4V9.8c0-1.2-.4-2-1.4-2-0.8 0-1.2.6-1.4 1.1c-0.1.2-.1.5-.1.8V16H6z" />
  </symbol>

  <!-- ========= FOOTER SEND ICON ========= -->

  <symbol id="icon-send" viewBox="0 0 24 24">
    <path fill="currentColor"
      d="M3 20l18-8L3 4v5l11 3L3 15z" />
  </symbol>

  <!-- ========= MODAL ICONS ========= -->

  <symbol id="icon-close" viewBox="0 0 8 8">
    <path fill="currentColor"
      d="M0.7 0L0 0.7 3.3 4 0 7.3 0.7 8 4 4.7 7.3 8 8 7.3 4.7 4 8 0.7 7.3 0 4 3.3z" />
  </symbol>

  <symbol id="icon-person" viewBox="0 0 18 18">
    <g fill="none" stroke="currentColor" stroke-width="1.5" stroke-linecap="round" stroke-linejoin="round">
      <circle cx="9" cy="6" r="3" />
      <path d="M3.5 15a5.5 5.5 0 0 1 11 0" />
    </g>
  </symbol>

  <symbol id="icon-phone" viewBox="0 0 18 18">
    <g fill="none" stroke="currentColor" stroke-width="1.5" stroke-linecap="round" stroke-linejoin="round">
      <path
        d="M4.5 2.5l2-1.5 2.5 3L7 6.5c.5 1 .9 1.6 1.6 2.4c.7.7 1.4 1.2 2.4 1.6l2.5-2 3 2.5-1.5 2.1c-.4.6-1 .9-1.7 1C12 14.5 9 13 6.8 10.8C4.6 8.6 3.1 5.6 3 3.2c0-.7.3-1.3.9-1.7z" />
    </g>
  </symbol>

  <symbol id="icon-email" viewBox="0 0 18 18">
    <g fill="none" stroke="currentColor" stroke-width="1.5" stroke-linecap="round" stroke-linejoin="round">
      <rect x="2" y="4" width="14" height="10" rx="1.5" ry="1.5" />
      <path d="M3 5.5l6 4 6-4" />
    </g>
  </symbol>

  <symbol id="icon-check" viewBox="0 0 10 8">
    <path fill="currentColor"
      d="M3.5 7.5L0 4l1.4-1.4 2.1 2.1L8.6 0 10 1.4z" />
  </symbol>

</svg>
