<svg xmlns="http://www.w3.org/2000/svg" style="display: none">

  <!-- ========= FEATURES ICONS ========= -->

  <symbol id="icon-antenna-1" viewBox="0 0 64 64">
    <g fill="none" stroke="currentColor" stroke-width="2" stroke-linecap="round" stroke-linejoin="round">
      <circle cx="32" cy="44" r="3" />
      <path d="M32 41V30" />
      <path d="M22 26a14 14 0 0 1 20 0" />
      <path d="M18 22a20 20 0 0 1 28 0" />
      <path d="M26 34h12" />
    </g>
  </symbol>

  <symbol id="icon-clock-1" viewBox="0 0 64 64">
    <g fill="none" stroke="currentColor" stroke-width="2" stroke-linecap="round" stroke-linejoin="round">
      <circle cx="32" cy="32" r="22" />
      <path d="M32 18v14l10 6" />
    </g>
  </symbol>

  <symbol id="icon-diagram-1" viewBox="0 0 64 64">
    <g fill="none" stroke="currentColor" stroke-width="2" stroke-linecap="round" stroke-linejoin="round">
      <path d="M20 44V30" />
      <path d="M32 44V22" />
      <path d="M44 44V34" />
      <rect x="14" y="14" width="36" height="36" rx="2" ry="2" />
    </g>
  </symbol>

  <symbol id="icon-astronaut-1" viewBox="0 0 64 64">
    <g fill="none" stroke="currentColor" stroke-width="2" stroke-linecap="round" stroke-linejoin="round">
      <circle cx="32" cy="22" r="10" />
      <path d="M22 46a10 10 0 0 1 20 0v6H22z" />
      <path d="M16 30h4" />
      <path d="M44 30h4" />
    </g>
  </symbol>

  <!-- ========= TEAM & FOOTER ICONS ========= -->

  <symbol id="icon-instagram" viewBox="0 0 24 24">
    <g fill="none" stroke="currentColor" stroke-width="2">
      <rect x="2" y="2" width="20" height="20" rx="5" ry="5"/>
      <circle cx="12" cy="12" r="4"/>
      <circle cx="17.5" cy="6.5" r="1"/>
    </g>
  </symbol>

  <symbol id="icon-twitter" viewBox="0 0 24 24">
    <path fill="currentColor"
      d="M22 5.8c-.8.4-1.6.6-2.5.8.9-.5 1.6-1.4 1.9-2.4-.9.5-1.9.9-3 1.1A4.2 4.2 0 0 0 12 9.2c0 .3 0 .6.1.9-3.5-.2-6.6-1.9-8.7-4.6-.3.5-.4 1.1-.4 1.7 0 1.5.8 2.9 2 3.7-.7 0-1.4-.2-2-.6 0 2.1 1.5 3.9 3.5 4.4-.3.1-.7.1-1 .1-.3 0-.5 0-.8-.1.6 1.8 2.3 3.1 4.3 3.1A8.4 8.4 0 0 1 2 19.1 11.8 11.8 0 0 0 8.3 21c7.5 0 11.6-6.2 11.6-11.6v-.5c.8-.5 1.5-1.2 2.1-2.1z" />
  </symbol>

  <symbol id="icon-facebook" viewBox="0 0 24 24">
    <path fill="currentColor"
      d="M22 12a10 10 0 1 0-11.5 9.9v-7H8v-3h2.5V9.5C10.5 7 12 5.7 14.3 5.7c1 0 2 .1 2 .1V8h-1.1C13.7 8 13 8.7 13 9.9V12h3l-.5 3h-2.5v7A10 10 0 0 0 22 12z" />
  </symbol>

  <symbol id="icon-linkedin" viewBox="0 0 24 24">
    <path fill="currentColor"
      d="M4.98 3.5C4.98 4.88 3.86 6 2.5 6S0 4.88 0 3.5A2.5 2.5 0 0 1 4.98 3.5zM.5 8h4V24h-4V8zm7.5 0h3.8v2.2h.1c.5-.9 1.8-2.2 4.1-2.2 4.4 0 5.2 2.9 5.2 6.6V24h-4v-8.1c0-1.9 0-4.3-2.6-4.3-2.6 0-3 2-3 4.1V24h-4V8z" />
  </symbol>

  <!-- ========= MODAL ICONS ========= -->

  <symbol id="icon-close" viewBox="0 0 8 8">
    <path fill="currentColor"
      d="M7.4.6 4 4l3.4 3.4-1.4 1.4L2.6 5.4.6 7.4 0 6l2.6-2.6L0 .6 1.4 0 4 2.6 6.6 0z" />
  </symbol>

  <symbol id="icon-person" viewBox="0 0 18 18">
    <g fill="none" stroke="currentColor" stroke-width="1.5" stroke-linecap="round" stroke-linejoin="round">
      <circle cx="9" cy="5" r="3" />
      <path d="M3 16c0-3 2.7-5 6-5s6 2 6 5" />
    </g>
  </symbol>

  <symbol id="icon-phone" viewBox="0 0 18 18">
    <path fill="currentColor"
      d="M3 1h3l2 5-2 1c1 2 3 4 5 5l1-2 5 2v3c0 1-1 2-2 2A15 15 0 0 1 1 3C1 2 2 1 3 1z" />
  </symbol>

  <symbol id="icon-email" viewBox="0 0 18 18">
    <g fill="none" stroke="currentColor" stroke-width="1.5" stroke-linecap="round" stroke-linejoin="round">
      <rect x="2" y="4" width="14" height="10" rx="1.5" ry="1.5" />
      <path d="M3 5.5l6 4 6-4" />
    </g>
  </symbol>

  <symbol id="icon-check" viewBox="0 0 10 8">
    <path fill="currentColor"
      d="M3.5 7.5L0 4l1.4-1.4 2.1 2.1L8.6 0 10 1.4z" />
  </symbol>

</svg>
