<svg xmlns="http://www.w3.org/2000/svg" style="display: none">
  <!-- FEATURES -->
  <symbol id="icon-antenna-1" viewBox="0 0 64 64">
    <circle cx="32" cy="32" r="20" />
  </symbol>

  <symbol id="icon-clock-1" viewBox="0 0 64 64">
    <circle cx="32" cy="32" r="20" />
    <path d="M32 18v14l10 6" />
  </symbol>

  <symbol id="icon-diagram-1" viewBox="0 0 64 64">
    <rect x="14" y="30" width="8" height="20" />
    <rect x="28" y="24" width="8" height="26" />
    <rect x="42" y="18" width="8" height="32" />
  </symbol>

  <symbol id="icon-astronaut-1" viewBox="0 0 64 64">
    <circle cx="32" cy="24" r="10" />
    <rect x="20" y="34" width="24" height="16" rx="4" />
  </symbol>

  <!-- SOCIAL -->
  <symbol id="icon-instagram" viewBox="0 0 24 24">
    <rect x="3" y="3" width="18" height="18" rx="5" />
    <circle cx="12" cy="12" r="4" />
    <circle cx="17" cy="7" r="1" />
  </symbol>

  <symbol id="icon-twitter" viewBox="0 0 24 24">
    <path
      d="M20 7.5a5 5 0 0 1-2.1.6A3.1 3.1 0 0 0 19.5 6a5.3 5.3 0 0 1-2.3.9A3 3 0 0 0 9 9.6a8.4 8.4 0 0 1-6-3 3 3 0 0 0 .9 4 3 3 0 0 1-1.4-.4 3 3 0 0 0 2.4 3 3 3 0 0 1-1.4.1A3 3 0 0 0 6.7 15a6 6 0 0 1-4 1.1A8.4 8.4 0 0 0 9 18"
    />
  </symbol>

  <symbol id="icon-facebook" viewBox="0 0 24 24">
    <path
      d="M13 21v-7h3l1-4h-4V7.5A1.5 1.5 0 0 1 14.5 6H17V2h-3a5 5 0 0 0-5 5v3H6v4h3v7z"
    />
  </symbol>

  <symbol id="icon-linkedin" viewBox="0 0 24 24">
    <rect x="3" y="9" width="4" height="12" />
    <circle cx="5" cy="5" r="2" />
    <path d="M11 9h4a4 4 0 0 1 4 4v8h-4v-8a1 1 0 0 0-1-1h-3z" />
  </symbol>

  <!-- FOOTER SEND -->
  <symbol id="icon-send" viewBox="0 0 24 24">
    <path d="M3 4l18 8-18 8 4-8-4-8z" />
  </symbol>

  <!-- MODAL INPUT ICONS -->
  <symbol id="icon-person" viewBox="0 0 32 32">
    <circle cx="16" cy="12" r="6" />
    <path d="M6 26a10 10 0 0 1 20 0z" />
  </symbol>

  <symbol id="icon-phone" viewBox="0 0 32 32">
    <path
      d="M10 4l3 2-2 5 3 4 4 3 5-2 2 3-2 4c-8 2-17-7-15-15z"
    />
  </symbol>

  <symbol id="icon-email" viewBox="0 0 32 32">
    <rect x="4" y="8" width="24" height="16" rx="2" />
    <path d="M6 10l10 8 10-8" />
  </symbol>

  <!-- CHECKBOX -->
  <symbol id="icon-check" viewBox="0 0 16 16">
    <path d="M3 9l3 3 7-8" />
  </symbol>

  <!-- CLOSE -->
  <symbol id="icon-close" viewBox="0 0 16 16">
    <path d="M3 3l10 10M13 3L3 13" />
  </symbol>
</svg>
