<svg xmlns="http://www.w3.org/2000/svg" aria-hidden="true" style="position:absolute;width:0;height:0;overflow:hidden">
<defs>

<symbol id="icon-instagram" viewBox="0 0 32 32">
<path d="M16 7.3c2.6 0 2.9 0 3.9.1 1 .1 1.6.2 2 .4.5.2.9.5 1.3.9.4.4.7.8.9 1.3.2.4.4 1 .4 2 .1 1 .1 1.3.1 3.9s0 2.9-.1 3.9c-.1 1-.2 1.6-.4 2-.2.5-.5.9-.9 1.3-.4.4-.8.7-1.3.9-.4.2-1 .4-2 .4-1 .1-1.3.1-3.9.1s-2.9 0-3.9-.1c-1-.1-1.6-.2-2-.4-.5-.2-.9-.5-1.3-.9-.4-.4-.7-.8-.9-1.3-.2-.4-.4-1-.4-2-.1-1-.1-1.3-.1-3.9s0-2.9.1-3.9c.1-1 .2-1.6.4-2 .2-.5.5-.9.9-1.3.4-.4.8-.7 1.3-.9.4-.2 1-.4 2-.4 1-.1 1.3-.1 3.9-.1m0-2.3c-2.7 0-3.1 0-4.1.1-1.1.1-1.9.3-2.6.6-.7.3-1.3.7-1.9 1.3-.6.6-1 1.2-1.3 1.9-.3.7-.5 1.5-.6 2.6-.1 1-.1 1.4-.1 4.1s0 3.1.1 4.1c.1 1.1.3 1.9.6 2.6.3.7.7 1.3 1.3 1.9.6.6 1.2 1 1.9 1.3.7.3 1.5.5 2.6.6 1 .1 1.4.1 4.1.1s3.1 0 4.1-.1c1.1-.1 1.9-.3 2.6-.6.7-.3 1.3-.7 1.9-1.3.6-.6 1-1.2 1.3-1.9.3-.7.5-1.5.6-2.6.1-1 .1-1.4.1-4.1s0-3.1-.1-4.1c-.1-1.1-.3-1.9-.6-2.6-.3-.7-.7-1.3-1.3-1.9-.6-.6-1.2-1-1.9-1.3-.7-.3-1.5-.5-2.6-.6-1-.1-1.4-.1-4.1-.1z"></path>
<path d="M16 10.8A5.2 5.2 0 1021.2 16 5.2 5.2 0 0016 10.8zm0 8.6A3.4 3.4 0 1119.4 16 3.4 3.4 0 0116 19.4z"></path>
<circle cx="21.4" cy="10.6" r="1.2"></circle>
</symbol>

<symbol id="icon-twitter" viewBox="0 0 32 32">
<path d="M30 7.6a11.6 11.6 0 01-3.3.9 5.7 5.7 0 002.5-3.2 11.7 11.7 0 01-3.6 1.4 5.6 5.6 0 00-9.7 3.8c0 .4 0 .8.1 1.1a15.9 15.9 0 01-11.6-5.9 5.6 5.6 0 001.7 7.5A5.7 5.7 0 013 12v.1a5.6 5.6 0 004.5 5.5 5.7 5.7 0 01-2.5.1 5.6 5.6 0 005.2 3.9A11.3 11.3 0 012 25a15.9 15.9 0 008.6 2.5c10.3 0 15.9-8.6 15.9-15.9v-.7A11 11 0 0030 7.6z"></path>
</symbol>

<symbol id="icon-facebook" viewBox="0 0 32 32">
<path d="M19 6h3V0h-3c-4.1 0-7 3.1-7 7.5V12H8v6h4v14h6V18h4.1l.9-6H18V7.5c0-1 .8-1.5 1-1.5z"></path>
</symbol>

<symbol id="icon-linkedin" viewBox="0 0 32 32">
<path d="M6.9 12.5H1.6V30h5.3V12.5zM4.2 0C2.1 0 .6 1.5.6 3.3c0 1.8 1.5 3.3 3.6 3.3 2.1 0 3.5-1.4 3.6-3.3C7.9 1.4 6.4 0 4.2 0zM30.4 30V19.2c0-5.8-3.1-8.4-7.3-8.4-3.4 0-5 1.9-5.9 3.2V12.5H12c.1 1.6 0 17.5 0 17.5h5.3V19.8c0-.5 0-1 .2-1.4.5-1 1.6-2.1 3.4-2.1 2.4 0 3.4 1.8 3.4 4.4V30h5.3z"></path>
</symbol>

<symbol id="icon-user" viewBox="0 0 32 32">
<path d="M16 0a9.1 9.1 0 100 18.2A9.1 9.1 0 0016 0zm0 29c-5.4 0-16 2.7-16 8v3h32v-3c0-5.3-10.6-8-16-8z"></path>
</symbol>

<symbol id="icon-phone" viewBox="0 0 32 32">
<path d="M6.6 2l4.4-.4c1-.1 2 .6 2.2 1.7l.9 4.2c.2.8 0 1.6-.6 2.1l-2.5 2.5a22.1 22.1 0 0010 10l2.5-2.5c.6-.6 1.3-.8 2.1-.6l4.2.9c1 .2 1.8 1.2 1.7 2.2l-.4 4.4c-.1 1.2-1.1 2.1-2.3 2.1A29.9 29.9 0 012 8.9C2 7.7 2.9 6.7 4.1 6.6z"></path>
</symbol>

<symbol id="icon-email" viewBox="0 0 32 32">
<path d="M2.7 5h26.6c1.5 0 2.7 1.2 2.7 2.7v16.6c0 1.5-1.2 2.7-2.7 2.7H2.7A2.7 2.7 0 010 24.3V7.7C0 6.2 1.2 5 2.7 5zm13.3 12l13.3-8H5.4zM2.7 24.3h26.6V10.3L16 19.3 2.7 10.3z"></path>
</symbol>

<symbol id="icon-close" viewBox="0 0 32 32">
<path d="M18.3 16l12-12-2.3-2.3-12 12-12-12L1.7 4l12 12-12 12 2.3 2.3 12-12 12 12 2.3-2.3-12-12z"></path>
</symbol>

<symbol id="icon-check" viewBox="0 0 32 32">
<path d="M12 22.6L4.4 15l-2.1 2.1L12 26.9l17.7-17.7-2.1-2.1z"></path>
</symbol>

</defs>
</svg>