<?xml version="1.0" encoding="UTF-8"?>
<svg
  aria-hidden="true"
  style="position: absolute; width: 0; height: 0; overflow: hidden;"
  version="1.1"
  xmlns="http://www.w3.org/2000/svg"
>
  <defs>
    <!-- ========== FEATURES ICONS ========== -->

    <!-- antenna -->
    <symbol id="icon-antenna-1" viewBox="0 0 64 64">
      <path
        d="M32 36a4 4 0 1 0 0-8 4 4 0 0 0 0 8Z"
        fill="#2e2f42"
      />
      <path
        d="M19 23a18.4 18.4 0 0 1 26 0"
        fill="none"
        stroke="#2e2f42"
        stroke-width="2"
        stroke-linecap="round"
      />
      <path
        d="M13 17a26.4 26.4 0 0 1 38 0"
        fill="none"
        stroke="#2e2f42"
        stroke-width="2"
        stroke-linecap="round"
      />
      <path
        d="M28 40v10M36 40v10"
        fill="none"
        stroke="#2e2f42"
        stroke-width="2"
        stroke-linecap="round"
      />
    </symbol>

    <!-- clock -->
    <symbol id="icon-clock-1" viewBox="0 0 64 64">
      <circle
        cx="32"
        cy="32"
        r="18"
        fill="none"
        stroke="#2e2f42"
        stroke-width="2"
      />
      <path
        d="M32 20v12l8 4"
        fill="none"
        stroke="#2e2f42"
        stroke-width="2"
        stroke-linecap="round"
        stroke-linejoin="round"
      />
    </symbol>

    <!-- diagram -->
    <symbol id="icon-diagram-1" viewBox="0 0 64 64">
      <rect
        x="14"
        y="30"
        width="8"
        height="18"
        rx="1"
        fill="#2e2f42"
      />
      <rect
        x="28"
        y="24"
        width="8"
        height="24"
        rx="1"
        fill="#2e2f42"
      />
      <rect
        x="42"
        y="18"
        width="8"
        height="30"
        rx="1"
        fill="#2e2f42"
      />
      <path
        d="M12 50h40"
        fill="none"
        stroke="#2e2f42"
        stroke-width="2"
        stroke-linecap="round"
      />
    </symbol>

    <!-- astronaut -->
    <symbol id="icon-astronaut-1" viewBox="0 0 64 64">
      <circle
        cx="32"
        cy="26"
        r="12"
        fill="#2e2f42"
      />
      <rect
        x="16"
        y="36"
        width="32"
        height="14"
        rx="6"
        fill="#2e2f42"
      />
      <rect
        x="22"
        y="22"
        width="20"
        height="8"
        rx="4"
        fill="#f4f4fd"
      />
    </symbol>

    <!-- ========== SOCIAL ICONS ========== -->

    <symbol id="icon-instagram" viewBox="0 0 24 24">
      <rect
        x="2"
        y="2"
        width="20"
        height="20"
        rx="5"
        fill="currentColor"
      />
      <circle
        cx="12"
        cy="12"
        r="4"
        fill="#f4f4fd"
      />
      <circle
        cx="17"
        cy="7"
        r="1.4"
        fill="#f4f4fd"
      />
    </symbol>

    <symbol id="icon-twitter" viewBox="0 0 24 24">
      <path
        d="M21 6.5c-.7.3-1.3.4-2 .5a3.2 3.2 0 0 0 1.4-1.8 6.2 6.2 0 0 1-2.1.8A3.1 3.1 0 0 0 12 8.6a8.9 8.9 0 0 1-6.5-3.3 3.1 3.1 0 0 0 1 4.2 3.1 3.1 0 0 1-1.4-.4v.1a3.1 3.1 0 0 0 2.5 3 3.2 3.2 0 0 1-1.4.1A3.1 3.1 0 0 0 9 14a6.3 6.3 0 0 1-3.9 1.3h-.7A8.9 8.9 0 0 0 21 8.1v-.2Z"
        fill="currentColor"
      />
    </symbol>

    <symbol id="icon-facebook" viewBox="0 0 24 24">
      <path
        d="M13 21v-7h2.5l.5-3H13V9a1.3 1.3 0 0 1 1.5-1.5H16V5a19 19 0 0 0-2-.1A3.5 3.5 0 0 0 10.3 8v3H8v3h2.3v7Z"
        fill="currentColor"
      />
    </symbol>

    <symbol id="icon-linkedin" viewBox="0 0 24 24">
      <path
        d="M5 4a2 2 0 1 0 0 4 2 2 0 0 0 0-4ZM4 9h2v11H4Zm5 0h2v1.4a3.1 3.1 0 0 1 2.7-1.6C15.9 8.8 18 11 18 14.3V20h-2v-5.4c0-1.8-1-3-2.4-3-1.3 0-2.6 1-2.6 3.2V20H9Z"
        fill="currentColor"
      />
    </symbol>

    <!-- ========== FORM / UI ICONS ========== -->

    <!-- send (subscribe button) -->
    <symbol id="icon-send" viewBox="0 0 24 24">
      <path
        d="M3 11.5 20 4l-3.5 16-4.5-5-3.5 3.5.5-5.5Z"
        fill="currentColor"
      />
    </symbol>

    <!-- person -->
    <symbol id="icon-person" viewBox="0 0 24 24">
      <circle cx="12" cy="8" r="4" fill="currentColor" />
      <path
        d="M5 19a7 7 0 0 1 14 0Z"
        fill="currentColor"
      />
    </symbol>

    <!-- phone -->
    <symbol id="icon-phone" viewBox="0 0 24 24">
      <path
        d="M8.8 4.3 6.9 5.2a2 2 0 0 0-1.1 2.2 14.6 14.6 0 0 0 3.8 7 14.6 14.6 0 0 0 7 3.8 2 2 0 0 0 2.2-1.1l.9-1.9-3.3-2-1.7 1.1a2 2 0 0 1-2-.1 11 11 0 0 1-3.3-3.3 2 2 0 0 1-.1-2l1.1-1.7Z"
        fill="currentColor"
      />
    </symbol>

    <!-- email -->
    <symbol id="icon-email" viewBox="0 0 24 24">
      <rect
        x="3"
        y="5"
        width="18"
        height="14"
        rx="2"
        fill="currentColor"
      />
      <path
        d="M5 7.5 12 12l7-4.5"
        fill="none"
        stroke="#f4f4fd"
        stroke-width="1.5"
        stroke-linecap="round"
        stroke-linejoin="round"
      />
    </symbol>

    <!-- close -->
    <symbol id="icon-close" viewBox="0 0 8 8">
      <path
        d="M1 1l6 6M7 1 1 7"
        fill="none"
        stroke="currentColor"
        stroke-width="1.2"
        stroke-linecap="round"
      />
    </symbol>

    <!-- check -->
    <symbol id="icon-check" viewBox="0 0 10 8">
      <path
        d="M1 4l3 3 5-6"
        fill="none"
        stroke="#f4f4fd"
        stroke-width="1.5"
        stroke-linecap="round"
        stroke-linejoin="round"
      />
    </symbol>
  </defs>
</svg>
