<?xml version="1.0" encoding="UTF-8"?>
<svg xmlns="http://www.w3.org/2000/svg" style="display:none">
  <symbol id="icon-antenna" viewBox="0 0 32 32">
    <path d="M16 0l2 6h-4l2-6zM6 10l4 4-3 3-4-4 3-3zM26 10l3 3-4 4-3-3 4-4zM16 10c3.3 0 6 2.7 6 6 0 2.2-1.2 4.2-3 5.2v4.8h-6v-4.8c-1.8-1-3-3-3-5.2 0-3.3 2.7-6 6-6z"/>
  </symbol>

  <symbol id="icon-astronaut" viewBox="0 0 32 32">
    <path d="M16 0c-4.4 0-8 3.6-8 8v6c0 4.4 3.6 8 8 8s8-3.6 8-8v-6c0-4.4-3.6-8-8-8zM12 8c0-2.2 1.8-4 4-4s4 1.8 4 4v4h-8v-4zM6 22l-2 6h4l2-6h-4zM22 22l2 6h4l-2-6h-4zM10 20h12v4h-12v-4z"/>
  </symbol>

  <symbol id="icon-clock" viewBox="0 0 32 32">
    <path d="M16 0c-8.8 0-16 7.2-16 16s7.2 16 16 16 16-7.2 16-16-7.2-16-16-16zM17 8v9h7v2h-9v-11h2z"/>
  </symbol>

  <symbol id="icon-diagram" viewBox="0 0 32 32">
    <path d="M30 30h-28v2h30v-32h-2v30zM6 26h4v-12h-4v12zM12 26h4v-20h-4v20zM18 26h4v-8h-4v8zM24 26h4v-16h-4v16z"/>
  </symbol>

  <symbol id="icon-facebook" viewBox="0 0 32 32">
    <path d="M18 6h4v-6h-4c-3.3 0-6 2.7-6 6v4h-4v6h4v16h6v-16h4l2-6h-6v-4c0-1.1 0.9-2 2-2z"/>
  </symbol>

  <symbol id="icon-instagram" viewBox="0 0 32 32">
    <path d="M22 0h-12c-5.5 0-10 4.5-10 10v12c0 5.5 4.5 10 10 10h12c5.5 0 10-4.5 10-10v-12c0-5.5-4.5-10-10-10zM16 24c-4.4 0-8-3.6-8-8s3.6-8 8-8 8 3.6 8 8-3.6 8-8 8zM24 8c-1.1 0-2-0.9-2-2s0.9-2 2-2 2 0.9 2 2-0.9 2-2 2z"/>
  </symbol>

  <symbol id="icon-linkedin" viewBox="0 0 32 32">
    <path d="M2 0c-1.1 0-2 0.9-2 2v28c0 1.1 0.9 2 2 2h28c1.1 0 2-0.9 2-2v-28c0-1.1-0.9-2-2-2h-28zM10 26h-4v-14h4v14zM8 10c-1.3 0-2-0.9-2-2s0.7-2 2-2 2 0.9 2 2-0.7 2-2 2zM26 26h-4v-8c0-1.6-1.4-3-3-3s-3 1.4-3 3v8h-4v-14h4v2c1-1.5 2.9-2.5 5-2.5 3.3 0 5 2.7 5 6v8z"/>
  </symbol>

  <symbol id="icon-twitter" viewBox="0 0 32 32">
    <path d="M32 6.1c-1.2 0.5-2.5 0.9-3.8 1 1.4-0.8 2.4-2.1 2.9-3.6-1.3 0.7-2.7 1.2-4.2 1.5-1.2-1.3-3-2-4.8-2-3.7 0-6.8 3-6.8 6.8 0 0.5 0 1 0.1 1.5-5.6-0.3-10.6-3-13.9-7.2-0.6 1-1 2.1-1 3.4 0 2.3 1.2 4.4 3 5.6-1.1 0-2.1-0.3-3-0.8 0 0 0 0.1 0 0.1 0 3.2 2.3 5.8 5.3 6.4-0.6 0.2-1.3 0.3-2 0.3-0.5 0-1 0-1.5-0.1 1 3 3.8 5.2 7.2 5.3-2.6 2-5.8 3.2-9.3 3.2-0.6 0-1.2 0-1.8-0.1 3.3 2.1 7.3 3.3 11.5 3.3 13.8 0 21.3-11.5 21.3-21.3v-1c1.4-1 2.4-2.1 3.3-3.4z"/>
  </symbol>
</svg>
