<svg xmlns="http://www.w3.org/2000/svg" xmlns:xlink="http://www.w3.org/1999/xlink">
  <symbol id="icon-antenna-1" viewBox="0 0 64 64">
    <path d="M32 4a4 4 0 0 1 4 4v8.09a16 16 0 1 1-8 0V8a4 4 0 0 1 4-4zm0 24a8 8 0 1 0 0-16 8 8 0 0 0 0 16z"/>
  </symbol>

  <symbol id="icon-clock-1" viewBox="0 0 64 64">
    <path d="M32 6a26 26 0 1 1 0 52 26 26 0 0 1 0-52zm0 6a20 20 0 1 0 0 40 20 20 0 0 0 0-40zm-2 6h4v12l8 8-3 3-9-9z"/>
  </symbol>

  <symbol id="icon-diagram-1" viewBox="0 0 64 64">
    <path d="M12 52h8V28h-8v24zm16 0h8V14h-8v38zm16 0h8V34h-8v18zM8 56h48v4H8z"/>
  </symbol>

  <symbol id="icon-astronaut-1" viewBox="0 0 64 64">
    <path d="M32 4a16 16 0 0 1 16 16v6a16 16 0 0 1-32 0v-6A16 16 0 0 1 32 4zm0 6a10 10 0 0 0-10 10v6a10 10 0 0 0 20 0v-6A10 10 0 0 0 32 10zM16 44h8l-4 12h-8a4 4 0 0 1-4-4v-4a4 4 0 0 1 4-4h4zm32 0h4a4 4 0 0 1 4 4v4a4 4 0 0 1-4 4h-8l-4-12h8z"/>
  </symbol>

  <!-- Instagram -->
  <symbol id="icon-instagram" viewBox="0 0 24 24">
    <path d="M7 2h10a5 5 0 0 1 5 5v10a5 5 0 0 1-5 5H7a5 5 0 0 1-5-5V7a5 5 0 0 1 5-5zm0 2a3 3 0 0 0-3 3v10a3 3 0 0 0 3 3h10a3 3 0 0 0 3-3V7a3 3 0 0 0-3-3H7zm5 3.5A4.5 4.5 0 1 1 7.5 12 4.5 4.5 0 0 1 12 7.5zm0 2A2.5 2.5 0 1 0 14.5 12 2.5 2.5 0 0 0 12 9.5zM17.5 6a1 1 0 1 1-1 1 1 1 0 0 1 1-1z"/>
  </symbol>

  <!-- Twitter -->
  <symbol id="icon-twitter" viewBox="0 0 24 24">
    <path d="M20.5 7.2c.9-.6 1.5-1.3 1.9-2.1-.8.4-1.6.6-2.5.8A3.6 3.6 0 0 0 12 8.1a10.3 10.3 0 0 1-7.5-3.8 3.6 3.6 0 0 0 1.1 4.8 3.6 3.6 0 0 1-1.6-.4v.1a3.6 3.6 0 0 0 2.9 3.5 3.7 3.7 0 0 1-1.6.1 3.6 3.6 0 0 0 3.3 2.5A7.3 7.3 0 0 1 4 17.4 10.3 10.3 0 0 0 9.7 19c6.3 0 9.8-5.3 9.8-9.8v-.4a7 7 0 0 0 1.7-1.6z"/>
  </symbol>

  <!-- Facebook -->
  <symbol id="icon-facebook" viewBox="0 0 24 24">
    <path d="M13 21v-7h3l1-4h-4V7.5A1.5 1.5 0 0 1 14.5 6H17V2h-3a5 5 0 0 0-5 5v3H6v4h3v7z"/>
  </symbol>

  <!-- LinkedIn -->
  <symbol id="icon-linkedin" viewBox="0 0 24 24">
    <path d="M5 3a3 3 0 1 1-3 3 3 3 0 0 1 3-3zM3 9h4v12H3zm8 0h3.7v1.7h.1A4 4 0 0 1 19 9.2c3 0 4 2 4 5v6h-4v-5.3c0-1.3 0-3-2-3s-2.3 1.4-2.3 2.9V21H11z"/>
  </symbol>

  <!-- Send (footer button) -->
  <symbol id="icon-send" viewBox="0 0 24 24">
    <path d="M3 20l18-8-18-8v6l11 2-11 2z"/>
  </symbol>

  <!-- Phone -->
  <symbol id="icon-phone" viewBox="0 0 24 24">
    <path d="M6.6 3l2.1-.5a2 2 0 0 1 2.3 1.1l1.3 2.9a2 2 0 0 1-.5 2.3l-1.4 1.4a11.5 11.5 0 0 0 4.9 4.9l1.4-1.4a2 2 0 0 1 2.3-.5l2.9 1.3a2 2 0 0 1 1.1 2.3L22 21.4A2 2 0 0 1 20 23 17 17 0 0 1 3 6a2 2 0 0 1 1.6-2z"/>
  </symbol>

  <!-- Email -->
  <symbol id="icon-email" viewBox="0 0 24 24">
    <path d="M4 4h16a2 2 0 0 1 2 2v12a2 2 0 0 1-2 2H4a2 2 0 0 1-2-2V6a2 2 0 0 1 2-2zm0 3v.2l8 5 8-5V7zm0 3.3V18h16v-7.7l-8 5z"/>
  </symbol>

  <!-- Person -->
  <symbol id="icon-person" viewBox="0 0 24 24">
    <path d="M12 4a4 4 0 1 1-4 4 4 4 0 0 1 4-4zm0 8a7 7 0 0 1 7 7v1H5v-1a7 7 0 0 1 7-7z"/>
  </symbol>

  <!-- Check (checkbox) -->
  <symbol id="icon-check" viewBox="0 0 16 16">
    <path d="M6.2 11.3L3 8.1l1.4-1.4 1.8 1.8 4.4-4.4L12 5.5z"/>
  </symbol>

  <!-- Close (modal) -->
  <symbol id="icon-close" viewBox="0 0 8 8">
    <path d="M1 1l6 6M7 1L1 7" stroke="currentColor" stroke-width="1.5" stroke-linecap="round"/>
  </symbol>
</svg>