<svg xmlns="http://www.w3.org/2000/svg" aria-hidden="true" style="display: none">
  <!-- ICON SEND (24x24) -->
  <symbol id="icon-send" viewBox="0 0 24 24">
    <path d="M3.4 20.6 21 12 3.4 3.4 3 3.2 3.2 3.6 6.5 12 3.2 20.4 3 20.8l.4-.2Z" fill="currentColor" />
    <path d="M6.5 12h5" fill="none" stroke="currentColor" stroke-width="2" stroke-linecap="round" stroke-linejoin="round" />
  </symbol>

  <!-- ICON CLOSE (8x8) -->
  <symbol id="icon-close" viewBox="0 0 8 8">
    <path d="M1 1l6 6M7 1 1 7" fill="none" stroke="currentColor" stroke-width="1.2" stroke-linecap="round" stroke-linejoin="round" />
  </symbol>

  <!-- ICON PERSON (18x18) -->
  <symbol id="icon-person" viewBox="0 0 18 18">
    <path d="M9 9a3 3 0 1 0 0-6 3 3 0 0 0 0 6Z" fill="currentColor" />
    <path d="M3 15a6 6 0 0 1 12 0" fill="none" stroke="currentColor" stroke-width="1.5" stroke-linecap="round" stroke-linejoin="round" />
  </symbol>

  <!-- ICON PHONE (18x18) -->
  <symbol id="icon-phone" viewBox="0 0 18 18">
    <path d="M13.4 10.8 11.2 11a1 1 0 0 0-.8.6l-.6 1.3a8.7 8.7 0 0 1-3.7-3.7l1.3-.6a1 1 0 0 0 .6-.8l.2-2.2A1 1 0 0 0 7.5 4L5.2 3.5a1 1 0 0 0-1.2.6A11 11 0 0 0 14 13.9a1 1 0 0 0 .6-1.2l-.5-2.3a1 1 0 0 0-.7-.8Z" fill="currentColor" />
  </symbol>

  <!-- ICON EMAIL (18x18) -->
  <symbol id="icon-email" viewBox="0 0 18 18">
    <rect x="2" y="3" width="14" height="12" rx="1.5" ry="1.5" fill="none" stroke="currentColor" stroke-width="1.4" />
    <path d="M3 4.5 9 9l6-4.5" fill="none" stroke="currentColor" stroke-width="1.4" stroke-linecap="round" stroke-linejoin="round" />
  </symbol>

  <!-- ICON CHECK (10x8) -->
  <symbol id="icon-check" viewBox="0 0 10 8">
    <path d="M1 4.2 3.6 7 9 1" fill="none" stroke="currentColor" stroke-width="1.5" stroke-linecap="round" stroke-linejoin="round" />
  </symbol>
</svg>
