<svg aria-hidden="true" style="position:absolute;width:0;height:0;overflow:hidden" version="1.1" xmlns="http://www.w3.org/2000/svg">
<defs>
<symbol id="icon-antenna" viewBox="0 0 32 32"><path d="M16 0c-1.104 0-2 0.896-2 2v8h4v-8c0-1.104-0.896-2-2-2zM8 12c-1.104 0-2 0.896-2 2v2h20v-2c0-1.104-0.896-2-2-2h-16zM6 20v2h20v-2h-20zM10 24v8h12v-8h-12z"></path></symbol>
<symbol id="icon-astronaut" viewBox="0 0 32 32"><path d="M16 0c-4.418 0-8 3.582-8 8v4h16v-4c0-4.418-3.582-8-8-8zM6 14v4h4v-4h-4zM22 14v4h4v-4h-4zM10 20v12h12v-12h-12z"></path></symbol>
<symbol id="icon-diagram" viewBox="0 0 32 32"><path d="M4 28h24v-2h-24v2zM6 24h4v-10h-4v10zM14 24h4v-18h-4v18zM22 24h4v-6h-4v6z"></path></symbol>
<symbol id="icon-clock" viewBox="0 0 32 32"><path d="M16 0c-8.837 0-16 7.163-16 16s7.163 16 16 16 16-7.163 16-16-7.163-16-16-16zM17 8h-2v10l8 5 1-1.732-7-4.268v-9z"></path></symbol>
<symbol id="icon-facebook" viewBox="0 0 32 32"><path d="M19 6h5v-6h-5c-4.418 0-8 3.582-8 8v4h-4v6h4v14h6v-14h4l1-6h-5v-4c0-1.104 0.896-2 2-2z"></path></symbol>
<symbol id="icon-instagram" viewBox="0 0 32 32"><path d="M16 7c-4.963 0-9 4.037-9 9s4.037 9 9 9 9-4.037 9-9-4.037-9-9-9zM16 22c-3.309 0-6-2.691-6-6s2.691-6 6-6 6 2.691 6 6-2.691 6-6 6zM23 5c0 1.105-0.895 2-2 2s-2-0.895-2-2 0.895-2 2-2 2 0.895 2 2z"></path></symbol>
<symbol id="icon-linkedin" viewBox="0 0 32 32"><path d="M6 12h6v20h-6v-20zM9 2c-2.209 0-4 1.791-4 4s1.791 4 4 4 4-1.791 4-4-1.791-4-4-4zM14 12h6v3c0.838-1.293 2.752-3 6-3 4.418 0 6 2.686 6 7v13h-6v-12c0-2.209-1.791-4-4-4s-4 1.791-4 4v12h-6v-20z"></path></symbol>
<symbol id="icon-twitter" viewBox="0 0 32 32"><path d="M32 6.076c-1.177 0.522-2.443 0.875-3.771 1.034 1.356-0.813 2.396-2.099 2.887-3.631-1.269 0.752-2.674 1.299-4.169 1.594-1.198-1.276-2.907-2.069-4.797-2.069-3.631 0-6.574 2.943-6.574 6.574 0 0.517 0.058 1.021 0.17 1.504-5.465-0.274-10.313-2.893-13.566-6.868-0.566 0.973-0.889 2.103-0.889 3.305 0 2.281 1.162 4.291 2.928 5.469-1.078-0.034-2.094-0.331-2.981-0.827 0 0.027 0 0.055 0 0.083 0 3.186 2.266 5.845 5.276 6.448-0.552 0.15-1.136 0.231-1.737 0.231-0.425 0-0.84-0.041-1.243-0.118 0.84 2.623 3.277 4.531 6.163 4.584-2.258 1.77-5.102 2.828-8.192 2.828-0.532 0-1.057-0.031-1.573-0.092 2.918 1.871 6.384 2.963 10.107 2.963 12.126 0 18.762-10.044 18.762-18.762 0-0.286-0.006-0.57-0.019-0.854 1.288-0.929 2.403-2.087 3.287-3.413z"></path></symbol>

</defs>
</svg>
